<svg xmlns="http://www.w3.org/2000/svg" xmlns:xlink="http://www.w3.org/1999/xlink" width="500" zoomAndPan="magnify" viewBox="0 0 375 374.999991" height="500" preserveAspectRatio="xMidYMid meet" version="1.0"><defs><clipPath id="7b64e3afac"><path d="M 0 7.308594 L 375 7.308594 L 375 368 L 0 368 Z M 0 7.308594 " clip-rule="nonzero"/></clipPath></defs><g clip-path="url(#7b64e3afac)"><path fill="#bb7321" d="M 107.464844 10.457031 C 109.164062 9.316406 110.652344 7.308594 112.953125 7.886719 C 111.78125 10.464844 109.125 11.886719 107.792969 14.347656 C 101.050781 32.039062 88.566406 32.578125 87.914062 40.847656 C 93.046875 37.859375 97.792969 34.195312 103.078125 31.425781 C 104.785156 30.628906 106.1875 29.347656 107.246094 27.804688 C 119.195312 11.574219 138.824219 8.234375 158.386719 13.007812 C 159.464844 13.128906 159.789062 14.089844 160.039062 14.996094 C 157.007812 15.417969 153.917969 15.273438 150.898438 15.71875 C 138.769531 19.300781 135.503906 35.351562 115.875 32.191406 C 113.121094 32.273438 110.429688 31.476562 107.695312 31.519531 C 101.792969 34.433594 89.875 41.925781 87.101562 44.832031 C 89.070312 45.894531 91.351562 45.574219 93.5 45.464844 C 96.855469 45.058594 99.539062 42.875 102.464844 41.390625 C 112.152344 36.339844 112.789062 37.660156 125.757812 39.269531 C 130.414062 40.214844 135.179688 39.414062 139.878906 39.652344 C 139.789062 39.941406 139.613281 40.53125 139.523438 40.824219 C 136.878906 41.753906 134.0625 41.878906 131.320312 42.332031 C 125.835938 44.378906 121.140625 48.34375 115.402344 49.742188 C 104.191406 49.992188 93.039062 48.246094 81.839844 48.652344 C 74.242188 54.859375 66.9375 61.492188 60.667969 69.074219 C 65.269531 72.015625 73.363281 63.039062 77.09375 60.679688 C 80.304688 58.308594 84.308594 57.335938 88.242188 57.261719 C 108.210938 55.503906 97.5 56.917969 109.871094 54.226562 C 109.859375 54.617188 109.839844 55.394531 109.835938 55.78125 C 107.398438 56.960938 104.71875 57.511719 102.277344 58.660156 C 97.769531 61.125 91.289062 68.574219 86.882812 69.136719 C 54.046875 74.207031 57.9375 72.585938 55.929688 74.789062 C 49.566406 82.617188 41.554688 95.09375 40.671875 98.171875 C 47.25 98.066406 51.574219 86.636719 57.949219 83.359375 C 65.941406 78.890625 69.519531 81.3125 84.972656 73.695312 C 85.019531 74.074219 85.109375 74.824219 85.148438 75.203125 C 82.75 77.421875 79.339844 78.222656 77.117188 80.675781 C 71.941406 86.367188 69.472656 91.148438 64.820312 92.996094 C 36.019531 103.453125 38.207031 101.914062 36.777344 105.128906 C 33.066406 113.351562 29.429688 121.710938 27.359375 130.519531 C 32.355469 130.699219 35.054688 118.867188 40.675781 113.105469 C 46.527344 108.039062 54.34375 106.285156 60.585938 101.832031 C 62.46875 100.527344 64.246094 99.074219 66.136719 97.777344 C 66.183594 98.546875 66.550781 99.460938 65.84375 100.0625 C 64.019531 102.164062 61.421875 103.492188 59.859375 105.847656 C 56.742188 110.558594 55.066406 116.332031 50.820312 120.234375 C 42.898438 125.351562 27.425781 134.5625 25.546875 136.832031 C 23.648438 144.621094 22.589844 152.578125 21.601562 160.527344 C 25.46875 160.046875 25.988281 148.851562 30.964844 142.183594 C 35.75 136.792969 42.59375 133.925781 47.855469 129.082031 C 49.191406 127.851562 49.28125 125.679688 50.980469 124.765625 C 51.179688 127.472656 49.011719 129.480469 48.511719 132.023438 C 44.957031 148.820312 41.375 147.566406 26.222656 162.191406 C 24.664062 163.746094 22.753906 164.964844 21.484375 166.789062 C 21.058594 171.910156 21.257812 187.636719 22.605469 193.644531 L 23.566406 193.644531 C 24.699219 191.695312 25.695312 189.527344 25.640625 187.226562 C 25.722656 170.988281 28.816406 172.792969 40.671875 159.585938 C 42.453125 158.027344 43.011719 155.664062 43.546875 153.46875 C 43.800781 153.386719 44.292969 153.230469 44.546875 153.144531 C 44.871094 155.777344 43.246094 158.066406 43.253906 160.65625 C 42.394531 177.667969 40.351562 171.125 23.371094 198.460938 C 24.394531 207.226562 26.828125 215.820312 29.539062 224.21875 C 29.714844 225.296875 31.46875 224.695312 31.421875 223.769531 C 32.363281 219.261719 31.285156 214.695312 30.867188 210.195312 C 30.722656 208.625 29.945312 207.023438 30.570312 205.457031 C 32.613281 198.019531 38.289062 192.398438 41.386719 185.46875 C 42.175781 183.957031 41.136719 181.546875 42.753906 180.613281 C 45.105469 210.660156 45.4375 192.03125 32.578125 227.570312 C 32.304688 228.546875 31.722656 229.570312 32.003906 230.605469 C 34.992188 238.953125 39.21875 246.78125 43.503906 254.511719 C 43.742188 254.582031 44.207031 254.726562 44.433594 254.804688 C 44.675781 252.203125 44.945312 249.429688 43.828125 246.988281 C 37.324219 231.878906 41.328125 232.160156 46.855469 213.976562 C 47.445312 211.765625 46.574219 209.484375 47.105469 207.265625 C 47.9375 208.507812 48.609375 209.902344 48.632812 211.433594 C 48.984375 216.601562 55.121094 227.933594 52.195312 234.785156 C 49.375 242.46875 48.007812 250.566406 46.167969 258.507812 C 52.566406 268.808594 62.484375 280.804688 65.097656 282.570312 C 65.753906 275.992188 57.28125 268.410156 57.046875 261.421875 C 57.207031 254.875 59.003906 248.484375 59.394531 241.957031 C 59.671875 239.878906 58.578125 238.015625 58.351562 236.003906 C 61.074219 237.269531 60.757812 240.949219 62.222656 243.226562 C 71.734375 257.425781 69.308594 268.8125 67.921875 283.625 C 67.933594 284.441406 67.4375 285.503906 68.230469 286.121094 C 70.636719 288.519531 86.582031 303.757812 89.777344 303.675781 C 89.855469 298.070312 81.929688 291.320312 78.511719 286.503906 C 75.101562 280.082031 76.710938 272.585938 75.695312 265.6875 C 75.554688 263.445312 73.652344 261.808594 73.558594 259.5625 C 76.152344 261.445312 76.90625 264.789062 79.199219 266.949219 C 83.542969 271.261719 86.5625 276.714844 88.984375 282.292969 C 90.5 287.15625 90.683594 292.289062 91.476562 297.292969 C 92.164062 308.183594 92.746094 306.25 95.828125 308.628906 C 102.296875 312.667969 108.894531 316.601562 115.890625 319.648438 C 115.699219 318.882812 115.84375 317.960938 115.285156 317.347656 C 111.992188 313.449219 107.113281 311.460938 103.390625 308.078125 C 98.90625 301.921875 96.664062 287.648438 94.8125 283.183594 C 93.96875 281.671875 92.664062 280.492188 91.824219 278.980469 C 93.992188 279.164062 95.085938 281.21875 96.445312 282.640625 C 98.03125 284.554688 106.132812 289.378906 110.671875 297.757812 C 114.835938 307.070312 117.9375 320.921875 121.519531 322.335938 C 130.015625 325.949219 138.800781 328.925781 147.769531 331.140625 C 147.859375 330.78125 148.035156 330.0625 148.128906 329.710938 C 145.867188 326.109375 138.78125 323.914062 132.28125 320.238281 C 125.152344 316.238281 125.621094 309.238281 120.449219 301.625 C 119.003906 299.265625 115.757812 298.507812 114.871094 295.722656 C 118.074219 296.167969 120.378906 298.652344 123.125 300.132812 C 126.207031 302.03125 129.71875 303.152344 132.667969 305.265625 C 141.972656 312.855469 145.789062 325.207031 155.203125 332.675781 C 159.007812 333.644531 174.277344 336.015625 177.015625 335.523438 C 176.960938 330.976562 167.109375 331.085938 159.929688 326.789062 C 153.71875 322.652344 152.484375 313.867188 145.6875 310.402344 C 144.652344 309.820312 143.734375 309.042969 143.117188 308.023438 C 146.074219 308.265625 148.738281 309.789062 151.578125 310.570312 C 155.605469 312.085938 160.160156 312.265625 163.808594 314.714844 C 171.890625 320.136719 175.601562 329.878906 183.375 335.648438 C 184.679688 336.273438 186.238281 335.925781 187.648438 336.042969 C 189.347656 335.894531 191.324219 336.414062 192.769531 335.257812 C 195.351562 333.582031 196.910156 330.839844 199.050781 328.703125 C 213.765625 309.6875 213.125 314.507812 223.863281 310.605469 C 226.679688 309.671875 229.421875 308.328125 232.402344 308.023438 C 231.28125 310.230469 228.558594 310.714844 226.898438 312.402344 C 222.730469 316.605469 220.953125 322.734375 216.160156 326.402344 C 211.523438 329.636719 205.640625 330.078125 200.660156 332.582031 C 199.515625 333.027344 198.914062 334.128906 198.261719 335.09375 C 199.601562 336.171875 201.296875 335.371094 202.832031 335.367188 C 222.300781 333.007812 220.054688 333.046875 222.675781 330.585938 C 229.804688 323.570312 233.8125 314.070312 240.863281 306.988281 C 244.027344 303.769531 248.480469 302.53125 252.238281 300.21875 C 254.953125 298.652344 257.371094 296.523438 260.40625 295.5625 C 260.386719 295.941406 260.351562 296.691406 260.335938 297.070312 C 258.042969 298.882812 255.5 300.613281 254.101562 303.269531 C 251.597656 307.257812 250.539062 311.972656 247.949219 315.917969 C 243.613281 322.902344 228.550781 324.789062 227.175781 330.667969 C 232.246094 331.121094 250.117188 324.054688 255.089844 321.855469 C 262.527344 311.382812 259.863281 296.105469 277.492188 284.253906 C 279.808594 282.765625 280.664062 279.320312 283.648438 278.949219 C 282.832031 280.886719 280.851562 282.125 280.332031 284.207031 C 276.398438 299.019531 275.28125 303.457031 272.34375 307.910156 C 268.730469 311.226562 264.015625 313.179688 260.691406 316.847656 C 260.050781 317.558594 259.882812 318.53125 259.636719 319.425781 C 266.746094 316.933594 281.519531 307.929688 282.949219 306.03125 C 283.796875 303.234375 284.308594 292.65625 285.789062 285.300781 C 286.777344 280.503906 289.441406 276.289062 292.039062 272.210938 C 293.929688 269.078125 297.066406 266.910156 298.785156 263.65625 C 299.542969 262.160156 300.480469 260.738281 301.753906 259.636719 C 301.855469 259.925781 302.054688 260.496094 302.15625 260.785156 C 297.546875 266.761719 301.230469 269.648438 298.542969 282.433594 C 298.132812 284.757812 297.101562 286.972656 295.460938 288.6875 C 285.714844 299.351562 286.171875 300.332031 285.9375 303.761719 C 289.886719 302.523438 302.765625 290.855469 307.921875 285.554688 C 307.128906 282.027344 307.382812 278.394531 306.777344 274.847656 C 306.035156 264.253906 305.09375 261.015625 310.25 248.675781 C 311.421875 245.648438 313.816406 243.242188 314.65625 240.074219 C 315.308594 238.597656 315.332031 236.277344 317.3125 235.972656 C 313.660156 244.316406 320.664062 257.652344 317.785156 265.234375 C 315.433594 270.9375 310.75 275.839844 310.339844 282.226562 C 313.472656 281.171875 324.996094 265.507812 329.105469 258.996094 C 329.277344 255.1875 325.507812 242.074219 325.171875 240.417969 C 323.46875 232.433594 321.199219 235.171875 323.628906 223.140625 C 324.734375 217.675781 325.917969 219.328125 327.457031 208.242188 C 327.757812 208.136719 328.34375 207.929688 328.640625 207.828125 C 328.644531 209.773438 328.097656 211.738281 328.5625 213.664062 C 330.550781 220.074219 333.585938 226.171875 334.878906 232.789062 C 335.832031 238.546875 332.824219 243.820312 330.96875 249.046875 C 330.851562 251 330.398438 253.285156 331.632812 254.96875 C 336.289062 247.421875 340.171875 239.410156 343.433594 231.164062 C 344.15625 229.875 343.261719 228.515625 342.910156 227.265625 C 340.066406 219.867188 337.378906 212.367188 333.671875 205.351562 C 329.066406 198.144531 333.230469 191.582031 332.589844 181.058594 C 332.890625 181.019531 333.484375 180.921875 333.777344 180.875 C 333.8125 182.183594 333.761719 183.5 333.957031 184.796875 C 336.941406 192.488281 343.703125 198.417969 345.164062 206.742188 C 344.707031 210.925781 341.800781 226.402344 345.878906 224.652344 C 346.898438 221.5625 353.597656 200.078125 351.613281 197.5 C 335.230469 171.941406 334.589844 176.90625 332.902344 167.40625 C 332.285156 164.726562 332.78125 161.929688 332.113281 159.257812 C 331.734375 157.136719 330.53125 154.867188 331.65625 152.78125 C 332.484375 154.941406 332.761719 157.4375 334.433594 159.175781 C 337.789062 162.871094 341.570312 166.167969 344.917969 169.875 C 353.660156 180.605469 347.347656 185.949219 351.707031 193.082031 C 351.964844 193.726562 352.414062 193.898438 353.054688 193.585938 C 353.921875 189.492188 354.777344 174.417969 354.09375 166.734375 C 335.402344 147.523438 331.34375 151.34375 327.15625 132.421875 C 326.535156 129.761719 324.628906 127.53125 324.546875 124.722656 C 326.339844 125.875 326.503906 128.265625 328.1875 129.53125 C 333.609375 134.339844 340.707031 137.207031 345.199219 143.078125 C 349.65625 149.929688 349.992188 159.496094 353.652344 159.964844 C 353.667969 152.691406 350.125 137.230469 350.066406 136.664062 C 341.8125 130.5625 332.808594 125.574219 324.289062 119.878906 C 320.265625 115.75 318.613281 109.976562 315.296875 105.34375 C 313.292969 103.085938 310.703125 101.382812 308.894531 98.941406 C 309.222656 98.605469 309.558594 98.273438 309.894531 97.9375 C 323.351562 109.101562 332.851562 107.796875 338.015625 117.292969 C 340.003906 120.09375 344.40625 131.285156 348.222656 130.472656 C 345.777344 120.964844 342.101562 111.75 337.585938 103.042969 C 329.695312 99.386719 321.285156 96.941406 313.144531 93.878906 C 311.140625 93.070312 308.828125 92.652344 307.3125 90.996094 C 303.992188 87.609375 301.246094 83.71875 297.992188 80.273438 C 295.992188 78.183594 293.078125 77.425781 290.835938 75.671875 C 290.160156 75.253906 290.324219 74.347656 290.152344 73.695312 C 293.605469 74.6875 296.503906 77.054688 300.03125 77.84375 C 305.820312 79.726562 312.074219 80.285156 317.480469 83.253906 C 324.785156 87.246094 327.839844 97.78125 334.875 98.117188 C 330.945312 89.78125 325.394531 82.289062 319.851562 74.960938 C 318.378906 72.335938 307.378906 72.203125 288.441406 69.101562 C 284.863281 68.507812 278.785156 62.675781 275.019531 59.714844 C 272.589844 57.808594 269.414062 57.519531 266.699219 56.210938 C 265.878906 55.917969 265.605469 55.027344 265.28125 54.324219 C 268.832031 54.511719 272.105469 56.246094 275.675781 56.316406 C 280.722656 56.988281 285.835938 56.972656 290.890625 57.570312 C 301.492188 59.015625 304.308594 69.757812 314.492188 69.738281 C 314.503906 68.289062 313.414062 67.308594 312.550781 66.300781 C 306.503906 60.089844 300.484375 53.757812 293.503906 48.59375 C 281.855469 48.410156 261.796875 50.617188 258.871094 49.441406 C 254.707031 47.953125 250.941406 45.585938 247.03125 43.566406 C 243.773438 41.449219 239.6875 42.191406 236.125 40.941406 C 236.089844 40.582031 236.011719 39.855469 235.972656 39.488281 C 255.457031 40.257812 257.082031 36.925781 265.050781 38.074219 C 274.890625 40.375 279.378906 48.144531 288.277344 44.878906 C 284.957031 41.21875 272.515625 33.933594 268.179688 31.566406 C 265.363281 31.078125 254.300781 34.417969 245.332031 30.53125 C 238.359375 27.246094 234.136719 20.199219 227.308594 16.71875 C 223.589844 14.703125 219.21875 15.996094 215.285156 14.808594 C 217.253906 11.835938 221.34375 12.515625 224.371094 11.632812 C 262.171875 8.832031 265.359375 27.613281 271.523438 30.882812 C 276.09375 33.519531 280.632812 36.222656 284.941406 39.269531 C 285.796875 39.894531 286.71875 40.402344 287.71875 40.765625 C 286.582031 32.800781 274.605469 31.144531 268.582031 16.25 C 266.480469 10.875 263.097656 10.675781 262.890625 7.738281 C 265.132812 7.570312 266.578125 9.449219 268.273438 10.578125 C 271.148438 12.917969 274.933594 13.570312 277.957031 15.664062 C 287.117188 21.234375 289.152344 36.609375 291.617188 43.789062 C 293.515625 46.1875 296.449219 47.492188 298.550781 49.710938 C 302.394531 52.910156 305.917969 56.457031 309.546875 59.894531 C 311.117188 61.539062 312.519531 63.375 314.398438 64.691406 C 314.664062 55.109375 301.257812 49.203125 299.714844 38.222656 C 299.226562 34.261719 298.566406 29.761719 295.164062 27.179688 C 293.257812 25.203125 290.082031 24.199219 289.28125 21.363281 C 291.988281 20.714844 293.617188 23.089844 295.296875 24.71875 C 299.261719 28.84375 304.382812 31.625 308.386719 35.707031 C 318.621094 46.667969 316.296875 61.238281 317.519531 68.429688 C 322.417969 74.546875 327.285156 80.710938 331.425781 87.386719 C 332.335938 88.714844 332.929688 90.40625 334.488281 91.140625 C 334.933594 83.191406 326.128906 77.152344 326.128906 64.816406 C 326.140625 60.976562 326.140625 57.0625 324.835938 53.40625 C 323.328125 49.3125 317.984375 46.015625 317.683594 43.265625 C 318.347656 43.230469 319.019531 43.195312 319.6875 43.175781 C 321.339844 44.902344 322.816406 46.785156 324.167969 48.75 C 328.589844 54.378906 335.113281 58.769531 337.140625 65.96875 C 339.023438 74.527344 336.476562 83.222656 336.804688 91.851562 C 336.214844 98.335938 340.351562 100.035156 348.355469 122.519531 C 348.660156 122.59375 349.265625 122.742188 349.574219 122.820312 C 350.050781 114.03125 343.644531 107.160156 346.703125 95.476562 C 347.273438 91.976562 348.183594 88.429688 347.679688 84.863281 C 346.496094 80.023438 342.820312 76.335938 341.269531 71.648438 C 341.96875 71.644531 342.992188 71.070312 343.515625 71.8125 C 346.714844 75.6875 348.609375 80.402344 351.261719 84.628906 C 353.996094 89.609375 356.988281 94.835938 357.046875 100.679688 C 356.6875 110.058594 353.257812 118.886719 351.125 127.929688 C 350.074219 132.273438 353.609375 136.652344 355.210938 153.082031 C 355.558594 153.167969 356.253906 153.339844 356.605469 153.425781 C 357.175781 147.386719 355.117188 141.324219 356.441406 135.308594 C 357.535156 129.699219 361.363281 125.097656 362.527344 119.503906 C 363.308594 114.1875 359.851562 109.542969 359.410156 104.371094 C 359.816406 104.375 360.636719 104.382812 361.042969 104.386719 C 362.511719 106.46875 369.578125 125.15625 367.722656 135.746094 C 364.652344 146.121094 357.335938 155.964844 356.175781 160.703125 C 357.222656 170.605469 356.691406 180.589844 355.859375 190.484375 C 360.539062 190.042969 357.285156 175.070312 364.808594 164.957031 C 375 150.679688 369.695312 150.207031 370.710938 139.597656 C 371.09375 139.632812 371.859375 139.707031 372.234375 139.742188 C 373.6875 144.167969 373.539062 148.898438 373.894531 153.496094 C 374.65625 157.441406 374.441406 161.472656 374.464844 165.46875 C 374.753906 172.664062 367.71875 180.628906 362.402344 187.339844 C 356.167969 195.398438 355.039062 193.640625 354.339844 200.742188 C 353.316406 207.398438 351.347656 213.855469 349.882812 220.414062 C 352.921875 219.832031 353.585938 210.085938 357.964844 204.027344 C 360.863281 198.921875 368.710938 196.304688 370.746094 189.117188 C 371.558594 186.125 371.792969 182.992188 372.800781 180.050781 C 373.265625 179.179688 374.667969 179.949219 374.441406 180.855469 C 373.917969 186.109375 372.277344 191.199219 371.851562 196.472656 C 368.832031 208.628906 369.523438 207.507812 362.179688 214.101562 C 358.15625 217.804688 353.730469 221.019531 349.394531 224.339844 C 347.589844 225.570312 347.171875 227.855469 346.421875 229.761719 C 344.257812 236.113281 340.953125 241.992188 338.398438 248.167969 C 343.578125 247.855469 344.316406 232.28125 355.652344 228.996094 C 368.804688 224.71875 365.308594 217.539062 369.433594 215.390625 C 369.746094 216.722656 369.582031 218.09375 369.054688 219.355469 C 358.238281 246.058594 355.476562 241.285156 336.222656 251.792969 C 335.453125 252.777344 328.765625 265.320312 318.617188 277.082031 C 318.460938 277.476562 318.148438 278.257812 317.996094 278.644531 C 325.75 276.277344 326.523438 266.597656 336.136719 262.40625 C 339.851562 260.953125 343.992188 260.503906 347.367188 258.25 C 353.457031 254.140625 350.957031 255.097656 356.527344 247.382812 C 356.910156 247.394531 357.667969 247.417969 358.050781 247.429688 C 358.320312 251.160156 355.445312 253.96875 353.816406 257.058594 C 342.609375 274.671875 344.511719 271.371094 317.359375 281.648438 C 315.707031 282.308594 313.832031 282.648438 312.5625 284.003906 C 297.460938 299.992188 293.660156 299.730469 293.101562 302.851562 C 301.929688 301.039062 305.910156 291.097656 314.628906 289.117188 C 319.171875 287.988281 324.128906 289.800781 328.492188 287.683594 C 330.871094 286.226562 332.683594 284.027344 334.90625 282.359375 C 336.039062 281.640625 336.585938 283.519531 335.941406 284.25 C 333.871094 287.617188 322.058594 299.085938 315.777344 301.839844 C 309.265625 304.921875 289.832031 304.246094 287.46875 305.976562 C 281.136719 310.554688 274.5 314.742188 267.519531 318.265625 C 266.425781 318.839844 265.242188 319.351562 264.597656 320.46875 C 266.320312 320.527344 268.105469 320.675781 269.789062 320.175781 C 275.375 318.746094 278.910156 313.121094 284.742188 312.308594 C 289.503906 311.988281 294.339844 312.875 299.046875 311.863281 C 306.628906 310.40625 302.792969 311.894531 311.660156 306.289062 C 311.949219 306.472656 312.519531 306.835938 312.808594 307.023438 C 311.796875 310.121094 308.699219 311.734375 306.214844 313.523438 C 299.726562 318.027344 292.960938 323.382812 284.710938 323.671875 C 259.523438 322.261719 260.066406 321.773438 257.644531 323.152344 C 251.867188 325.800781 245.902344 328.039062 239.859375 329.992188 C 238.023438 330.597656 236.128906 331.058594 234.40625 331.9375 C 239.523438 335.546875 247.402344 330.09375 252.324219 328.480469 C 255.347656 327.542969 258.292969 329.121094 261.183594 329.8125 C 265.300781 330.988281 269.636719 330.628906 273.863281 330.546875 C 277.757812 330.675781 280.796875 327.855469 284.4375 326.960938 C 284.640625 327.195312 285.046875 327.667969 285.246094 327.910156 C 282.9375 330.523438 279.566406 331.816406 276.398438 333.070312 C 268.859375 335.996094 261.183594 339.410156 252.933594 339.3125 C 237.113281 337.355469 232.894531 334.027344 229.441406 333.046875 C 207.625 338.699219 204.789062 335.894531 202.394531 338.503906 C 204.769531 339.253906 207.261719 340.324219 209.792969 339.617188 C 213.648438 339.070312 217.660156 337.453125 221.511719 338.839844 C 223.605469 339.523438 225.304688 341 227.316406 341.867188 C 231.605469 343.941406 239.8125 345.382812 249.734375 343.402344 C 249.914062 343.679688 250.269531 344.230469 250.449219 344.507812 C 247.75 346.789062 244.007812 346.78125 240.699219 347.328125 C 217.984375 351.453125 217.472656 349.347656 209.683594 345.78125 C 205.425781 343.703125 201.335938 341.265625 197.613281 338.328125 C 196.058594 338.085938 194.484375 338.257812 192.929688 338.335938 C 194.214844 340.128906 196.417969 340.882812 198.09375 342.253906 C 215.738281 355.570312 215.308594 364.074219 231.421875 364.175781 C 223.96875 366.757812 215.96875 368.066406 208.078125 367.632812 C 203.714844 347.09375 191.476562 338.320312 187.140625 338.851562 C 176.484375 342.0625 170 356.4375 167.386719 367.730469 C 159.460938 367.914062 151.441406 366.835938 143.980469 364.125 C 160.753906 363.855469 160.566406 354.667969 178.363281 341.601562 C 179.679688 340.542969 181.550781 340 182.230469 338.324219 C 180.496094 338.398438 178.445312 337.628906 177.027344 338.976562 C 172.699219 342.3125 167.867188 344.945312 162.902344 347.199219 C 155.386719 351.289062 146.507812 349.332031 138.519531 348.035156 C 134.320312 346.789062 129.667969 347.304688 125.746094 345.140625 C 125.574219 344.570312 125.441406 343.992188 125.347656 343.410156 C 128.679688 343.679688 131.949219 344.804688 135.320312 344.492188 C 138.886719 344.003906 142.5625 344.042969 145.996094 342.8125 C 149.882812 341.714844 152.914062 338.351562 157.101562 338.207031 C 160.480469 338.371094 163.746094 339.421875 167.089844 339.828125 C 169.046875 340.082031 170.890625 339.269531 172.71875 338.71875 C 172.746094 338.464844 172.804688 337.953125 172.835938 337.699219 C 163.804688 336.679688 154.78125 335.292969 145.960938 333.007812 C 138.941406 336.410156 131.246094 338.140625 123.558594 339.242188 C 114.597656 339.683594 106.28125 335.746094 98.066406 332.71875 C 95.628906 331.605469 92.992188 330.625 91.113281 328.628906 C 90.386719 328.023438 90.648438 326.492188 91.816406 327.203125 C 97.746094 329.300781 97.03125 331.421875 111.734375 330.433594 C 115.75 330.039062 119.601562 327.257812 123.695312 328.65625 C 130.109375 330.515625 131.914062 334.238281 140.046875 332.707031 C 140.230469 332.40625 140.59375 331.808594 140.777344 331.507812 C 132.890625 329.347656 125.175781 326.515625 117.753906 323.066406 C 115.609375 321.839844 113.097656 322.375 110.757812 322.472656 C 105.417969 323.125 100.007812 322.746094 94.679688 323.472656 C 91.308594 323.894531 87.863281 323.601562 84.625 322.582031 C 78.070312 320.300781 65.417969 311.144531 63.34375 308.707031 C 62.992188 307.976562 62.910156 306.265625 64.101562 306.40625 C 67.800781 308.679688 70.53125 313.382812 88.277344 312.238281 C 97.359375 311.394531 101.175781 322.203125 110.957031 320.398438 C 110.390625 319.746094 109.726562 319.214844 108.964844 318.851562 C 101.691406 314.972656 94.597656 310.726562 87.90625 305.917969 C 83.476562 304.558594 78.699219 304.96875 74.144531 304.1875 C 62.515625 303.464844 58.703125 303.140625 49.117188 294.109375 C 45.691406 290.785156 41.738281 287.882812 39.25 283.71875 C 39.40625 283.285156 39.703125 282.417969 39.855469 281.984375 C 42.714844 283.445312 44.492188 286.328125 47.3125 287.839844 C 52.195312 289.894531 57.703125 287.640625 62.613281 289.617188 C 70.339844 292.339844 74.203125 301.527344 82.671875 302.667969 C 82.230469 301.84375 81.671875 301.097656 80.925781 300.539062 C 74.628906 295.503906 68.6875 290.03125 63.203125 284.125 C 60.941406 281.359375 37.660156 276.011719 31.640625 270.371094 C 26.328125 265.285156 22.714844 258.78125 19.003906 252.511719 C 18.035156 250.734375 16.476562 248.449219 18.351562 246.722656 C 22.632812 251.214844 21.800781 254.722656 29.136719 258.839844 C 33.03125 261.035156 37.714844 261.191406 41.554688 263.507812 C 48.394531 267.285156 51.28125 277.6875 58.113281 278.765625 C 56.714844 276.472656 54.769531 274.597656 53.121094 272.488281 C 30.144531 242.011719 50.375 258.71875 21.433594 242.902344 C 16.015625 239.859375 12.492188 232.425781 8.722656 224.578125 C 7.492188 221.625 5.457031 218.714844 6.261719 215.347656 C 9.179688 217.746094 9.121094 222.21875 12.066406 224.65625 C 15.394531 228.417969 20.894531 228.429688 24.714844 231.453125 C 31.222656 236.339844 32.285156 246.777344 37.277344 248.667969 C 37.097656 247.808594 36.875 246.960938 36.441406 246.195312 C 27.40625 228.179688 28.695312 225.976562 26.644531 224.738281 C 6.011719 209.285156 5.972656 207.675781 3.957031 197.636719 C 2.503906 186.691406 0.707031 183.191406 1.355469 179.730469 C 1.710938 179.726562 2.429688 179.714844 2.789062 179.699219 C 4.054688 184.234375 3.917969 189.367188 6.964844 193.210938 C 10.046875 197.59375 15.21875 199.949219 18.042969 204.542969 C 22.832031 212.269531 22.351562 219.566406 25.664062 219.953125 C 23.78125 212.652344 21.675781 205.371094 20.800781 197.859375 C 20.46875 193.765625 11.578125 187.613281 3.1875 173.566406 C 0.0117188 167.480469 1.035156 160.382812 1.617188 153.824219 C 2.460938 149.15625 1.402344 144.105469 3.476562 139.695312 C 3.871094 139.683594 4.652344 139.671875 5.039062 139.667969 C 5.351562 143.953125 4.164062 148.179688 4.492188 152.457031 C 6.476562 162.777344 14.054688 164.613281 15.761719 178.359375 C 16.542969 183.082031 16.714844 189.898438 19.671875 189.917969 C 19.230469 181.96875 18.234375 173.980469 19.03125 165.996094 C 18.984375 163.40625 19.996094 160.546875 18.535156 158.1875 C 8.132812 138.417969 4.554688 135.011719 9.769531 117.914062 C 11.042969 113.761719 11.855469 109.425781 13.878906 105.546875 C 14.308594 104.675781 15.21875 104.246094 15.984375 103.71875 C 16.320312 108.566406 12.886719 112.863281 12.875 117.695312 C 13.375 124.15625 18.019531 129.273438 19.183594 135.542969 C 20.246094 147.738281 17.40625 150.238281 19.496094 153.636719 C 21.226562 151.503906 19.542969 151.171875 24.28125 132.363281 C 25.203125 127.890625 23.199219 123.609375 22.082031 119.378906 C 16.8125 97.710938 16.65625 98.289062 26.785156 80.300781 C 28.550781 77.386719 29.855469 74.136719 32.21875 71.628906 C 32.847656 71.464844 33.488281 71.363281 34.148438 71.335938 C 33.105469 76.683594 28.195312 80.503906 27.757812 86.054688 C 27.472656 92.183594 30.300781 98.082031 29.46875 104.234375 C 29.242188 110.636719 25.449219 116.460938 26.175781 122.964844 C 26.449219 122.921875 27.007812 122.839844 27.292969 122.800781 C 29.714844 114.503906 33.53125 106.6875 37.300781 98.941406 C 40.113281 93.285156 37.769531 80.382812 37.886719 75.367188 C 38.085938 66.046875 36.132812 64.410156 48.832031 51.78125 C 51.394531 49.214844 53.035156 45.851562 55.78125 43.453125 C 56.386719 43.25 57.011719 43.105469 57.652344 43.027344 C 57.492188 43.929688 57.597656 45.011719 56.8125 45.660156 C 48.886719 54.117188 50.238281 52.953125 49.308594 65.390625 C 49.6875 75.777344 40.902344 83.542969 41.015625 90.917969 C 43.472656 90.378906 41.246094 89.546875 57.882812 68.679688 C 59.140625 63.648438 57.46875 51.554688 63.191406 40.800781 C 66.007812 35.933594 70.660156 32.550781 75.050781 29.207031 C 78.03125 27.144531 80.320312 24.273438 83.136719 22.019531 C 83.847656 21.355469 84.855469 21.320312 85.753906 21.101562 C 85.753906 21.53125 85.757812 22.394531 85.757812 22.832031 C 83.425781 25.039062 80.507812 26.621094 78.503906 29.171875 C 75.355469 33.53125 76.65625 39.425781 73.898438 43.933594 C 69.699219 51.457031 61.492188 56.558594 61.167969 64.464844 C 63.066406 63.382812 64.359375 61.550781 65.890625 60.035156 C 68.953125 57.015625 71.964844 53.929688 75.296875 51.191406 C 77.878906 48.636719 81.0625 46.769531 83.578125 44.15625 C 86.453125 39.203125 86.933594 21.113281 99.300781 14.671875 C 101.964844 13.160156 105.046875 12.414062 107.464844 10.460938 Z M 107.464844 10.457031 " fill-opacity="1" fill-rule="nonzero"/></g><path fill="#bb7321" d="M 184.355469 53.203125 C 186.578125 53.027344 188.808594 53.085938 191.03125 53.226562 C 191.671875 59.285156 191.003906 65.417969 191.386719 71.5 C 195.375 67.519531 197.855469 62.199219 201.902344 58.273438 C 201.507812 101.953125 202.507812 102.097656 201.335938 103.839844 C 198.066406 108.375 194.492188 112.703125 191.410156 117.363281 C 191.175781 120.273438 191.136719 123.269531 191.503906 126.171875 C 203.664062 115.113281 213.945312 118.5625 235.582031 116.003906 C 244.386719 114.609375 253.730469 112.691406 260.632812 106.628906 C 262.933594 104.632812 263.960938 101.714844 264.648438 98.839844 C 267.300781 95.769531 272.53125 95.214844 275.59375 97.988281 C 277.769531 100.683594 277.621094 104.769531 275.621094 107.523438 C 274.148438 109.269531 271.894531 110.007812 270 111.183594 C 270.480469 112.4375 312.40625 206.789062 315.195312 209.109375 C 288.601562 236.386719 245.511719 234.429688 221.640625 209.027344 C 224.464844 207.921875 220.5 215.078125 264.507812 118.058594 C 265.34375 116.246094 266.21875 114.445312 266.792969 112.53125 C 243.035156 118.277344 201.058594 121.046875 191.585938 142.949219 C 191.164062 143.953125 191.089844 276.753906 191.46875 280.199219 C 194.507812 278.558594 197.558594 276.933594 200.683594 275.457031 C 197.074219 284.46875 192.621094 293.125 188.804688 302.0625 C 188.40625 302.578125 188.375 304.074219 187.433594 303.46875 C 183.207031 294.105469 178.890625 284.78125 174.699219 275.394531 C 178.015625 276.742188 180.972656 278.855469 184.3125 280.179688 C 184.394531 259.390625 184.40625 152.097656 184.304688 143.675781 C 175.511719 120.910156 129.804688 117.761719 108.808594 112.523438 C 109.238281 114.226562 106.683594 108.417969 151.167969 206.546875 C 151.558594 207.820312 152.542969 208.621094 153.699219 209.179688 C 129.414062 235.273438 85.023438 235.429688 60.558594 209.113281 C 62.851562 207.074219 104.152344 114.667969 105.5 111.183594 C 103.664062 110.09375 101.625 109.234375 100.078125 107.738281 C 94.800781 100.621094 102.101562 91.976562 110.644531 98.328125 C 112.09375 101.449219 111.097656 107.484375 126.179688 112.867188 C 148.96875 120.707031 167.617188 112.769531 181.390625 124.078125 C 182.335938 124.828125 183.277344 125.582031 184.300781 126.222656 C 184.371094 123.402344 184.425781 120.578125 184.34375 117.757812 C 181.207031 112.722656 177.222656 108.246094 173.941406 103.304688 C 173.699219 101.734375 173.832031 58.453125 173.835938 58.226562 C 178.996094 64.269531 182.03125 69.890625 184.289062 71.53125 C 184.488281 65.421875 184.308594 59.3125 184.355469 53.203125 M 186.246094 56.992188 C 186.507812 59.917969 185.664062 63.03125 186.804688 65.808594 C 189.550781 64.59375 189.226562 68.304688 189.175781 56.785156 C 188.199219 56.855469 187.222656 56.914062 186.246094 56.992188 M 192.140625 75.765625 C 190.714844 77.347656 191.210938 79.644531 191.023438 81.585938 C 191.324219 81.503906 191.910156 81.339844 192.210938 81.257812 C 194.296875 78.765625 196.066406 76 198.109375 73.457031 C 199.71875 71.613281 199.03125 69.007812 198.984375 66.789062 C 196.496094 69.613281 194.480469 72.816406 192.140625 75.765625 M 176.273438 67.222656 C 176.273438 68.765625 176.203125 70.308594 176.304688 71.847656 C 177.792969 74.421875 179.820312 76.628906 181.527344 79.054688 C 182.332031 80.121094 182.902344 81.601562 184.4375 81.726562 C 184.367188 80.050781 184.660156 78.300781 184.179688 76.675781 C 182.777344 74.535156 181.054688 72.632812 179.644531 70.5 C 178.710938 69.234375 177.992188 67.535156 176.273438 67.222656 M 196.0625 80.914062 C 194.46875 83.246094 192.539062 85.339844 191.070312 87.753906 C 190.90625 89.125 190.957031 90.515625 190.957031 91.898438 C 191.261719 91.761719 191.871094 91.496094 192.175781 91.367188 C 200.996094 79.285156 198.980469 83.492188 199.132812 77.519531 C 197.660156 78.175781 196.980469 79.691406 196.0625 80.914062 M 176.257812 77.652344 C 176.285156 79.007812 176.09375 80.410156 176.421875 81.746094 C 177.621094 83.851562 179.292969 85.636719 180.667969 87.621094 C 181.761719 89.132812 182.679688 90.875 184.359375 91.828125 C 184.414062 90.460938 184.488281 89.085938 184.324219 87.726562 C 182.394531 84.328125 179.792969 81.398438 177.457031 78.289062 C 177.15625 78.128906 176.558594 77.8125 176.257812 77.652344 M 176.308594 87.429688 C 176.238281 88.898438 176.179688 90.375 176.320312 91.839844 C 177.652344 93.871094 179.292969 95.683594 180.597656 97.730469 C 181.609375 99.082031 182.472656 100.875 184.324219 101.144531 C 184.296875 99.839844 184.542969 98.503906 184.265625 97.214844 C 178.160156 88.523438 177.667969 88.0625 176.308594 87.429688 M 195.039062 92.238281 C 193.855469 93.976562 192.480469 95.578125 191.316406 97.324219 C 191.199219 98.722656 191.261719 100.121094 191.300781 101.523438 C 191.957031 101.167969 192.664062 100.828125 193.046875 100.144531 C 194.996094 97.320312 197.265625 94.722656 199.160156 91.863281 C 199.300781 90.316406 199.195312 88.753906 199.066406 87.214844 C 197.289062 88.507812 196.308594 90.507812 195.039062 92.238281 M 195.078125 102.265625 C 193.75 104.113281 192.179688 105.796875 191.085938 107.804688 C 190.863281 109.050781 191.222656 110.3125 191.335938 111.554688 C 194.15625 109.652344 195.542969 106.253906 197.824219 103.777344 C 199.597656 102.140625 199.179688 99.664062 199.078125 97.507812 C 197.308594 98.679688 196.367188 100.644531 195.078125 102.265625 M 176.234375 97.84375 C 176.261719 99.152344 176.132812 100.476562 176.367188 101.777344 C 177.5625 103.734375 179.089844 105.460938 180.351562 107.378906 C 181.574219 108.953125 182.53125 110.863281 184.367188 111.824219 C 184.066406 105.710938 186.320312 110.363281 178.46875 99.351562 C 177.960938 98.53125 177.152344 98.042969 176.234375 97.84375 M 66.21875 202.851562 C 65.40625 204.746094 64.300781 206.554688 63.984375 208.625 C 92.597656 208.726562 121.210938 208.691406 149.824219 208.644531 C 148.40625 204.5625 108.019531 115.476562 106.640625 113.949219 C 93.050781 143.527344 79.703125 173.21875 66.21875 202.851562 M 268.324219 114.273438 C 223.78125 212.515625 226.167969 206.726562 225.886719 208.65625 C 254.5 208.703125 283.113281 208.695312 311.726562 208.648438 C 311.0625 206.277344 286.914062 153.617188 269.769531 115.671875 C 269.476562 114.996094 269.230469 114.167969 268.324219 114.273438 Z M 268.324219 114.273438 " fill-opacity="1" fill-rule="nonzero"/></svg>